<!-- Generator: Adobe Illustrator 19.2.1, SVG Export Plug-In  -->
<svg version="1.1"
	 xmlns="http://www.w3.org/2000/svg" xmlns:xlink="http://www.w3.org/1999/xlink" xmlns:a="http://ns.adobe.com/AdobeSVGViewerExtensions/3.0/"
	 x="0px" y="0px" width="125.5px" height="190.9px" viewBox="0 0 255.5 190.9" style="enable-background:new 0 0 255.5 190.9;"
	 xml:space="preserve">
<style type="text/css">
	.st0{fill:none;}
	.st1{fill:#0BDDFC;}
	.st2{fill:#FFFFFF;}
</style>
<defs>
</defs>
<g>
	<path class="st0" d="M126.7,94.6c-1.8,0.3-2.7,1.5-2.5,3.3c0.2,1.9,1.7,2.2,3.3,2.1c2.9-0.3,4-1.9,3.7-5.4
		C129.6,94.6,128.2,94.4,126.7,94.6z"/>
	<path class="st0" d="M144.7,62.7c-14.6,0-29.2,0-43.8,0c-3.5,0-4.2,0.8-4.2,4.4c0,14.7,0,29.4,0,44.1c0,3.3,0.7,4,4,4
		c10.3,0,20.6,0,31,0c5.7,0,11.3,0,17.4,0c0-1.7,0-2.9,0-4.1c0-14.7,0-29.4,0-44.1C149,63.5,148.2,62.7,144.7,62.7z M113.6,70.8
		c0,1.5,0,3,0,4.8c-2.1,0-4.1,0-6.1,0C106.3,69.6,106.9,70.4,113.6,70.8z M113.6,104.5c-2.2,0-4.2,0-6.4,0c0-7.8,0-15.5,0-23.4
		c2.1,0,4.1,0,6.4,0C113.6,88.8,113.6,96.5,113.6,104.5z M132.5,104.4c-0.3-0.7-0.7-1.6-1.1-2.6c-1.9,2.4-4.2,3.5-7.1,3.3
		c-3.7-0.3-6.2-2.5-6.7-5.8c-0.6-3.8,1.1-6.8,4.9-7.9c2.8-0.8,5.8-0.9,8.9-1.4c0.1-1.8,0.3-3.7-2-4.4c-2.3-0.7-4,0-4.5,2.5
		c-2.2,0-4.1,0-6,0c-0.5-2.4,0.7-4.1,2.3-5.4c3.4-2.8,9.9-3.1,13.6-0.6c2.3,1.5,3.3,3.7,3.3,6.5c0.1,5.2,0.2,10.4,0.4,15.8
		C136.8,104.4,134.7,104.4,132.5,104.4z"/>
	<path class="st1" d="M253.5,137.8c-2.3,0-3.4-1.5-4.8-2.8c-2.2-2.2-4.4-4.3-6.5-6.5c-1.4-1.5-2.9-2.1-5.1-2.1
		c-24.3,0.1-48.7,0-73,0c-0.8,0-1.8,0.1-2.3-0.3c-1.7-1.4-3.7-2.7-4.6-4.6c-0.8-1.7-0.2-4.1-0.2-6.1c0.3-0.1,0.5-0.2,0.8-0.2
		c1.7,1.8,3.4,3.5,5,5.4c1.2,1.5,2.6,2,4.6,1.9c6.7-0.1,13.3-0.4,19.9,0.1c6,0.5,10.8-0.8,14.2-6c0.2-0.4,0.6-0.7,1-0.9
		c1-0.5,2.1-1.2,3.2-1.2c13.7-0.1,27.3-0.1,41,0c1,0,2.2,0.5,3.1,1c1.4,0.8,2.9,1.1,3.7-0.3c0.5-0.9,0.6-2.9,0-3.4
		c-0.9-0.6-2.4-0.5-3.7-0.3c-1.2,0.2-2.3,1.1-3.5,1.1c-11.1,0.1-22.3,0.5-33.3-0.1c-6.8-0.3-12.3,0.9-16.3,6.7
		c-0.6,0.9-2.2,1.4-3.4,1.4c-6.3,0.1-12.6-0.4-18.9,0.2c-6.7,0.7-11.4-1.5-15.6-6.6c-2-2.4-1.5-4.6-1.2-7.1c2.7,2.3,5,4.9,7.5,7.1
		c1,0.9,2.5,1.5,3.9,1.6c5.9,0.2,11.9-0.3,17.8,0.2c5,0.4,8.9-0.8,11.8-4.9c1.1-1.6,2.7-1.9,4.6-1.9c9.1,0.1,18.2,0.1,27.3,0
		c1.2,0,2.7-0.7,3.6-1.5c3.2-2.9,6.1-6.1,9.2-9c0.8-0.8,2.3-0.9,3.2-1.6c1-0.7,2.3-1.7,2.5-2.8c0.1-0.7-1.5-2.5-2.3-2.4
		c-1,0.1-2.1,1.3-2.9,2.3c-0.7,0.9-0.9,2.2-1.6,3c-2.8,3-5.7,6-8.7,8.7c-1,0.9-2.7,1.6-4.1,1.7c-7.5,0.2-15.1,0.4-22.6,0
		c-5-0.3-9,0.8-12.1,4.9c-0.7,0.9-2.3,1.7-3.5,1.7c-7.3,0.2-14.7,0.1-22.1,0c-1,0-2.2-0.5-3-1.2c-2.6-2.4-5-4.9-7.5-7.3
		c-1.7-1.6-1.8-3.4-1-5.8c0.9,0.6,1.7,0.9,2.3,1.4c2.4,2.3,4.6,4.8,7.1,7c1.1,1,2.8,1.7,4.3,1.8c3.8,0.2,7.7-0.1,11.5,0.1
		c3.2,0.2,5.5-0.6,7.5-3.2c1.2-1.5,2.7-2.7,4-4.1c1.2-1.3,2.5-1.9,4.3-1.9c6.4,0.1,12.8,0.1,19.2,0c1.3,0,2.9-0.6,3.9-1.5
		c3.6-3.3,6.8-7.1,10.5-10.2c3.4-2.9,4.7-6.2,4.1-10.5c-0.2-1.8-0.4-3.7,1.2-5.4c0.5-0.5,0.1-2.7-0.6-3.3c-0.7-0.6-2.7-0.4-3.3,0.2
		c-0.6,0.6-0.4,2.3-0.2,3.4c0.2,1.2,1,2.3,1.1,3.5c0.2,1.7,0.2,3.5,0,5.2c-0.2,1.2-0.6,2.6-1.4,3.4c-4,4.2-8.1,8.3-12.2,12.3
		c-0.8,0.7-2.1,1.3-3.2,1.3c-5.1,0.1-10.2,0.4-15.2,0c-5-0.4-8.9,0.8-11.8,4.9c-2.6,3.7-6,4.8-10.4,4.3c-3.6-0.4-7.8,0.9-10.9-0.5
		c-3.2-1.4-5.4-5-8.2-7.6c-1.1-1-2.4-1.7-4.1-2.9c0-0.2,0-1,0.1-1.9c1.4,0,2.5,0,3.7,0c18.6,0,37.1,0,55.7,0c2.3,0,3-0.6,2.9-3
		c-0.2-6.5,0.2-13-0.1-19.4c-0.2-3.9,0.7-6.9,3.9-9.3c1.5-1.1,2.4-2.8,4.7-2.8c0.7,0,1.8-1.9,1.8-2.9c0-0.8-1.7-2.3-2.4-2.1
		c-1.1,0.2-2.1,1.4-2.8,2.4c-0.7,0.9-0.9,2.3-1.6,3.2c-1,1.3-2.5,2.3-3.4,3.6c-0.8,1.2-1.6,2.7-1.7,4.1c-0.2,3.9-0.1,7.9-0.1,11.8
		c0,4.1,0,8.2,0,12.3c-20.4,0-40.4,0-60.4,0c-0.8-2.5,0.5-2.7,2.3-2.7c15.2,0,30.5,0,45.7,0c1.5,0,2.9,0,4.6,0c0-1.2,0-2,0-2.8
		c0-9.5,0-18.9,0-28.4c0-3.7,4.7-9.2,8.4-9.9c1.6-0.3,2.7-1.3,2.3-2.9c-0.2-0.9-1.6-2.4-2.2-2.3c-1.1,0.2-2.2,1.3-2.9,2.2
		c-0.8,1-1.1,2.4-1.8,3.4c-1,1.3-2.2,2.5-3.5,3.5c-1.6,1.3-2,2.8-2,4.8c0.1,9,0,18,0,27c0,1,0,2,0,3.1c-17.2,0-34.1,0-50.9,0
		c-0.1-0.3-0.3-0.6-0.4-0.9c0.7-0.4,1.4-1.1,2.2-1.1c4.7-0.1,9.5,0,14.2,0c1.6,0,3.2,0,5.2,0c0-2.9,0-5.2,0-7.9c6.8,0,13.2,0,20,0
		c0-1.3,0-2.3,0-3.4c0-9.3,0-18.6,0-27.8c0-3.3,4.7-8.2,8-9c1-0.2,2.2-1.7,2.4-2.7c0.1-0.7-1.4-2.1-2.4-2.4
		c-1.6-0.4-2.4,0.8-2.9,2.3c-0.3,1.1-0.8,2.2-1.5,3.1c-1.2,1.5-2.8,2.7-4,4.1c-0.7,0.9-1.4,2.1-1.4,3.2c-0.1,8.8-0.1,17.7-0.1,26.5
		c0,1.4,0,2.8,0,4.4c-1.2,0-2.2,0-3.1,0c-4.6,0-9.3,0.2-13.9-0.1c-2.7-0.1-3.4,0.8-3.1,3.3c0.2,1.4,0,2.9,0,4.5c-6.7,0-13,0-19.3,0
		c-0.7-2.1,0.3-2.4,1.9-2.4c4.2,0.1,8.3,0,12.7,0c0-2.9,0-5.4,0-8.2c3.6,0,6.9-0.1,10.2,0c2.1,0.1,2.7-0.6,2.7-2.7
		c-0.1-9.3,0.2-18.6-0.2-27.8c-0.2-5.3,0.8-9.5,5.2-12.7c1.6-1.1,2.5-3,5-2.9c0.7,0,1.9-1.8,2-2.7c0-0.8-1.5-2.2-2.3-2.2
		c-1,0-2.1,1.1-2.9,2c-0.9,1.1-1.2,2.6-2.1,3.6c-1.4,1.7-3,3.2-4.6,4.7c-1.5,1.3-2,2.8-2,4.8c0.1,9.2,0.1,18.4,0.1,27.6
		c0,6.5,0,6.5-6.4,6.5c-6.2,0-6.3,0-6.4,6.2c0,1.7-0.6,2.1-2.2,2c-3.1-0.1-6.3,0-9.4,0c-0.5,0-1-0.2-1.4-0.4c0-0.2,0.1-0.5,0.1-0.7
		c2.3,0,4.6,0,7.2,0c0-4.1,0-7.8,0-11.9c4.9,0,9.5,0,14.2,0c0-1.5,0-2.5,0-3.5c0-14.4,0-28.9,0-43.3c0-1.1,0.4-2.3,1-3.3
		c0.9-1.3,1.4-2.8,0-3.7c-0.9-0.6-2.5-0.2-3.7-0.2c0,1.3-0.2,2.5-0.1,3.8c0.1,0.9,1,1.7,1,2.5c0.1,14.7,0,29.4,0.1,44.1
		c0,1.5-0.5,2-2,2c-3.3-0.1-6.7,0.1-10-0.1c-1.9-0.1-2.4,0.7-2.4,2.5c0.1,3,0,6.1,0,9.2c-2.1,0-3.8,0-5.9,0c0-7,0-13.9,0-20.9
		c3,0,6.3-0.1,9.6,0c1.8,0.1,2.4-0.6,2.4-2.4c-0.1-7.4-0.5-14.9,0.1-22.3c0.7-8.5-1.1-15.6-7.4-21.5c-0.7-0.6-0.9-2-1-3
		c-0.1-1.8-0.9-3.1-2.5-3c-1,0.1-2.7,1.4-2.6,2.1c0,1,1.2,2.2,2.1,3.1c0.6,0.6,1.8,0.7,2.3,1.4c2.2,2.6,4.4,5.3,6.3,8
		c0.7,0.9,1.1,2.2,1.1,3.3c0.1,10.2,0.1,20.3,0.1,30.5c0,0.6-0.2,1.2-0.3,2c-4.2,0-8.3,0.1-12.4-0.1c-0.4,0-0.7-0.4-1.1-0.8
		c-0.1-0.2-0.3-0.3-0.4-0.5c-0.1-0.1-0.1-0.2-0.2-0.2c0.3-0.2,0.6-0.5,0.8-0.8c0.3-0.3,0.6-0.5,0.9-0.5c1-0.2,2.1-0.1,3.1,0
		c2,0.2,2.7-0.6,2.7-2.7c-0.1-7.8,0-15.6-0.1-23.4c0-1.4-0.6-2.9-1.3-4c-3.4-5-7.1-9.8-10.5-14.7c-0.7-1-0.6-2.4-1.1-3.5
		c-0.5-1-1.4-2.5-2.3-2.6c-0.9-0.1-2.6,1-2.8,1.9c-0.2,0.9,0.8,2.9,1.5,3c2.1,0.4,2.9,1.8,3.9,3.1c2.8,3.9,5.6,7.9,8.6,11.6
		c1.9,2.4,2.6,4.9,2.5,7.9c-0.2,6.5,0,13-0.1,19.4c0,0.6-0.1,1.2-0.2,2.1c-1.8,0-3.6,0.1-5.3,0c-1.5-0.1-2.1,0.5-2,2
		c0,0.6-0.1,1.2-0.2,1.7c-2.9,0-5.7,0-8.4,0c-0.4-4.1-0.4-4,2.2-6.6c1.1-1,2-2.2,3.2-3.1c1.4-1.2,2-2.7,2-4.6
		c-0.1-4.7,0-9.5-0.1-14.2c0-1.2-0.4-2.6-1.1-3.6c-3.5-5.2-7.1-10.4-10.6-15.6c-0.6-0.8-0.9-2-0.9-3.1c0.1-1.8-0.7-3.1-2.3-3.1
		c-1,0-2.4,1.1-2.8,2c-0.7,1.5,0.4,2.5,1.9,3.2c1,0.5,2.1,1.2,2.8,2.1c3.5,4.9,6.9,9.9,10.3,14.9c0.7,1,1.1,2.4,1.1,3.6
		c0.1,4.5,0,8.9,0.1,13.4c0,1.8-0.6,3.1-1.9,4.3c-2.9,2.9-7,5.1-5.5,10.4c-2.5,0-4.7,0-6.8,0c-0.7-3.9-0.7-4,1.8-6.4
		c1.2-1.2,2.6-2.2,3.5-3.5c0.9-1.3,1.7-2.8,1.8-4.3c0.2-4.8,0.2-9.6,0-14.4c0-1.1-0.4-2.4-1.1-3.3c-3.9-5.3-8-10.4-11.9-15.7
		c-0.8-1.1-0.8-2.7-1.5-3.9c-0.6-1-1.4-2.5-2.3-2.6c-0.9-0.1-2.6,1.1-2.8,2c-0.2,0.9,0.8,2.2,1.6,3.1c1.1,1.1,2.7,1.7,3.7,2.9
		c2,2.2,3.5,4.9,5.5,7c5.8,5.8,8.2,12.7,7,20.9c-0.1,0.5-0.1,1.1,0,1.6c0.5,3.2-0.6,5.7-3.2,7.7c-2.8,2.2-5.1,4.8-4.4,8.8
		c0,0.1-0.2,0.3-0.3,0.3c-1.8,0-3.6,0-5.4,0c-0.5-3.8-0.6-3.8,1.8-6.2c1.3-1.3,2.8-2.5,3.9-3.9c0.8-1,1.4-2.4,1.5-3.6
		c0.2-4.7,0-9.5,0.1-14.2c0.1-2.1-0.7-3.4-2.1-4.8c-5.7-5.3-11.3-10.7-16.9-16.1c-0.7-0.7-1.2-1.8-1.5-2.8c-0.4-1.7-1.3-3-3-2.5
		c-1,0.2-2.4,1.8-2.3,2.6c0.2,1,1.5,1.9,2.5,2.6c0.8,0.6,2,0.6,2.7,1.2c5.9,5.5,11.7,11,17.5,16.6c0.7,0.7,1.2,1.9,1.3,2.9
		c0.2,3.8-0.2,7.5,0.1,11.3c0.3,3.3-0.6,5.7-3.2,7.7c-2.8,2.2-5.1,4.8-4.5,8.8c0,0.1-0.2,0.3-0.3,0.4c-2.2,0-4.4,0-6.5,0
		c-0.8-2.9,0.1-4.9,2.2-6.6c1.3-1,2.5-2.2,3.5-3.6c0.7-1,1.4-2.4,1.5-3.6c0.2-4.9,0-9.8,0.1-14.7c0-1.7-0.6-2.7-2-3.5
		c-8.1-5-16.2-10-24.3-15.1c-0.9-0.5-1.3-1.7-2.1-2.4c-1-0.8-2.2-1.9-3.2-1.8c-0.8,0.1-1.9,1.8-1.9,2.8c0,1.6,1.4,2.5,3.2,2.3
		c0.9-0.1,1.9-0.1,2.6,0.3c8.1,5,16.2,10.1,24.3,15.1c1.3,0.8,1.7,1.7,1.7,3.2c-0.1,3.9-0.2,7.9,0,11.8c0.2,2.6-0.7,4.4-2.6,6.2
		c-2.7,2.6-6.3,4.8-4.7,9.7c-3.9,0-7.3,0-10.7,0c-0.7-2.8-0.1-4.9,2.1-6.6c1.4-1.1,2.6-2.4,3.7-3.7c0.7-1,1.3-2.3,1.4-3.4
		c0.1-4.9,0-9.8,0.1-14.7c0-1.8-0.5-2.6-2.2-3.3c-9.7-3.9-19.4-7.9-29.1-12c-1.1-0.5-2-1.4-2.8-2.4c-1-1.3-2.3-2-3.6-1
		c-0.8,0.7-1.5,2.6-1.1,3.2c0.6,0.9,2.1,1.2,3.4,1.5c0.9,0.2,2.1-0.2,2.9,0.2c9.6,3.8,19.1,7.8,28.7,11.6c1.6,0.6,2.1,1.5,2,3.1
		c-0.1,4.2-0.1,8.4,0,12.6c0.1,1.8-0.5,3.1-1.8,4.4c-2.9,3-7.1,5.2-5.6,10.6c-1.6,0-2.8,0-4.4,0c0-3,0.1-5.7-0.1-8.4
		c-0.1-1-0.4-2.5-1.1-3c-4.8-3.4-6.1-7.9-5.3-13.4c0-0.3,0-0.5,0-0.8c0.3-1.7-0.6-2.4-2.2-2.9c-9.2-2.7-18.4-5.5-27.6-8.3
		c-1.1-0.3-2.1-1.1-2.8-1.9c-1.2-1.3-2.5-2.1-3.8-0.8c-0.7,0.7-1.2,2.4-0.9,3.3c0.5,1.5,1.9,1.7,3.5,1.2c1-0.3,2.2-0.4,3.2-0.2
		c8.1,2.4,16.3,4.8,24.4,7.3c5.6,1.8,4.6,0.4,4.5,6.1c-0.1,3.6,0.2,7,3.5,9.2c4.5,3,2.6,7.7,2.9,11.7c0,0.3-0.7,1-1,0.9
		c-0.4-0.1-1-0.6-1.1-1c-0.2-0.9-0.2-1.9,0-2.9c0.4-2.6-0.7-4.4-2.5-6.2c-4.3-4.1-8.5-8.3-12.6-12.6c-1.3-1.3-2.6-1.8-4.4-1.8
		c-5.2,0.1-10.5,0-15.8,0c-3.4,0-7.7-4.1-8.4-7.5c-0.2-1-1.5-2.2-2.5-2.4c-0.8-0.1-2.4,1.1-2.5,1.9c-0.1,1,1,2.9,1.6,3
		c2.8,0.1,4.1,2.2,5.6,3.9c1.9,2.1,4,3,6.9,2.9c5-0.2,9.9-0.2,14.9,0c1.2,0,2.7,0.7,3.6,1.5c3.7,3.5,7.1,7.3,10.9,10.6
		c2.8,2.5,4.1,5.3,3.4,8.9c-0.2,0.9-0.7,2-1.4,2.4c-0.4,0.3-1.7-0.4-2.3-1c-5.4-5.3-10.7-10.8-16.2-16.1c-0.9-0.9-2.5-1.6-3.8-1.6
		c-7.8-0.1-15.6-0.1-23.4-0.1c-3.4,0-6.1-2.6-7-6c-0.2-1-1.7-2.3-2.6-2.2c-0.9,0-2.3,1.3-2.5,2.3c-0.2,0.8,1.1,2.7,1.7,2.6
		c2.7,0,3.8,2.2,5.5,3.4c1.1,0.8,2.6,1.6,3.9,1.6c8,0.1,15.9,0,23.9,0.1c1,0,2.3,0.3,3,1c5.6,5.5,11.2,11.1,16.7,16.7
		c0.4,0.4,0.8,1.2,0.7,1.7c-0.2,1.4-0.7,2.7-1.3,4.7c-1.3-0.7-2.6-1.2-3.6-2.1c-4.6-4.5-9.1-9.2-13.8-13.7c-1.1-1-2.8-1.7-4.3-1.7
		c-7.3-0.2-14.7-0.3-22,0c-4.5,0.2-8-0.7-10.7-4.4c-1-1.3-2.4-2.1-2.3-4.2c0-0.7-1.7-2.1-2.6-2.1c-0.9,0-2.3,1.5-2.4,2.3
		c0,0.9,1.2,2,2.1,2.7c1.1,0.8,2.5,1.2,3.6,2c1.2,0.9,2.4,2.1,3.4,3.3c1.2,1.5,2.7,1.9,4.6,1.9c8.6-0.1,17.2,0,25.7-0.1
		c1.8,0,3.1,0.6,4.4,1.8c4.5,4.6,9.1,9.2,13.7,13.7c0.7,0.6,1.5,1.5,2.3,1.5c3.2-0.1,2.4,1.7,2.1,3.5c-3.4,0.8-5.8-0.2-8-2.6
		c-3.7-4.1-7.7-7.9-11.7-11.7c-0.7-0.7-1.9-1.2-2.9-1.2c-11.6-0.1-23.3-0.1-34.9,0c-1.1,0-2.5,0.7-3.4,1.5
		c-6.2,6-12.3,12.2-18.5,18.3c-0.9,0.9-2.4,1.1-3.5,1.8c-1,0.8-2.3,1.8-2.4,2.8c-0.1,0.7,1.6,2.4,2.4,2.3c1-0.1,2-1.4,2.7-2.4
		c0.7-0.8,0.8-2.1,1.5-2.8c6.1-6.2,12.2-12.3,18.3-18.4c0.8-0.8,2.2-1.4,3.4-1.4c11.1-0.1,22.2-0.1,33.3,0c1.1,0,2.5,0.7,3.4,1.5
		c3.2,3,6.3,6,9.3,9.3c2.9,3.2,5.7,6.1,10.6,5.2c0.1,0,0.1,0.1,0.4,0.2c0,0.7,0,1.5,0,2.3c-4.5,1-8.4,0.4-11.2-3.6
		c-0.9-1.3-2.2-2.5-3.5-3.5c-1-0.7-2.2-1.4-3.4-1.4C65,63,59.9,63.1,54.8,63.1c-2.1,0-5-0.7-6,0.4c-1.1,1.2-0.7,4.1-0.7,6.2
		c0,1.9-0.8,2.3-2.5,2.3c-5.3-0.1-10.5-0.1-15.8,0c-1.1,0-2.4,0.4-3.3,1.1c-6.7,5-13.3,10.2-20,15.2c-1,0.8-2.5,0.8-3.7,1.4
		c-1.1,0.6-2.5,1.5-2.8,2.5c-0.2,0.7,1.3,2.6,2,2.6c1,0,2.2-1.1,3.1-2C5.8,92.2,6,91,6.7,90.4c6.6-5.2,13.3-10.3,20-15.3
		c1.1-0.8,2.7-1.3,4-1.4c5.5-0.1,11-0.1,16.5,0c1.8,0,2.5-0.5,2.4-2.4c-0.1-2.1,0-4.2,0-6.6c5.3,0,10.4,0.3,15.4-0.1
		c4.4-0.3,7.7,0.8,10.4,4.3c2.5,3.3,5.6,5.7,10.2,4.7c1.3-0.3,2.6-0.3,2.6,1.8c0,2.1-1.1,2.1-2.6,2.1c-13.6,0-27.1,0-40.7,0
		c-1,0-2,0.1-3.1,0.2c0,8.6-0.1,16.9,0.1,25.2c0,2.1-0.5,2.9-2.7,3.1c-10.2,0.8-20.4,1.8-30.6,2.6c-1.4,0.1-2.9-0.7-4.4-0.8
		c-1.1,0-2.7,0.2-3.3,0.9c-0.5,0.6-0.3,2.6,0.3,3.1c0.8,0.6,2.3,0.5,3.4,0.3c1.4-0.3,2.7-1.6,4.1-1.7c10.7-1.1,21.4-2,32.2-2.9
		c2-0.2,2.7-0.7,2.7-2.8c-0.1-7.5,0-15.1,0-22.6c0-0.9,0.1-1.9,0.1-3c7.3,0,14.4,0,21.5,0c7,0,14,0,21,0c0.6,0,1.4,0.2,1.8,0.6
		c0.2,0.2,0.2,1.3,0,1.4C87.5,81.8,86.7,82,86,82c-10.9,0-21.9,0-32.8,0c-0.9,0-1.8,0-3,0c0,1.3,0,2.3,0,3.2c0,8.8-0.1,17.7,0,26.5
		c0,1.7-0.5,2.5-2.2,3c-2.2,0.6-4.3,1.5-6.5,2.2c-9.4,3.1-18.5,7.6-28.9,6c-1.4-0.2-2.8-1.1-4.2-1.3c-1.2-0.2-2.7-0.2-3.5,0.5
		c-0.6,0.5-0.7,2.6-0.1,3.2c0.7,0.7,2.8,1.1,3.3,0.6c1.6-1.5,3.3-1.2,5.1-1.3c4.3-0.2,8.9,0.2,13-0.8c7.7-2,15.1-5.2,22.6-7.5
		c2.6-0.8,3.1-2.1,3.1-4.5c-0.1-8.5,0-17-0.1-25.5c0-2,0.4-2.7,2.6-2.7c10.3,0.1,20.7,0,31,0c0.9,0,1.7,0,2.7,0c0,1.1,0,1.9,0,3.1
		c-10.4,0-20.7,0-31.2,0c0,1.3,0,2.2,0,3.2c0,6.7-0.4,13.5,0.1,20.2c0.5,5.5-1.4,8.6-6.4,10.8c-4.4,1.9-8.7,4.6-12.4,7.6
		c-3.8,3.1-6.8,7-10.2,10.5c-0.7,0.7-2,0.8-2.8,1.5c-1,0.8-2.3,1.8-2.4,2.8c-0.1,0.8,1.4,2.2,2.4,2.4c1.6,0.3,2.7-0.9,2.8-2.7
		c0.1-0.7,0.1-1.7,0.6-2.1c5.8-5.5,10.2-12.5,17.9-15.9c3.4-1.5,6.6-3.7,9.9-5.4c1.7-0.9,2.3-2,2.3-3.9c-0.1-8.1-0.1-16.3,0-24.4
		c0-0.9,0.1-1.8,0.1-3c9.5,0,18.8,0,28.1,0.1c0.5,0,1,0.8,1.5,1.3c-0.5,0.4-1,1.2-1.6,1.2c-4.1,0.1-8.2,0.1-12.3,0.1
		c-3.7,0-7.5,0-11.3,0c-0.1,1.1-0.1,1.9-0.1,2.7c0,7.5,0.1,15.1-0.1,22.6c0,1.4-0.8,3-1.7,4.1c-3.6,4.2-8.4,7.4-10.5,12.9
		c-1.1,2.9-2.7,5.7-4.2,8.4c-0.6,1-1.8,1.7-2.5,2.7c-0.7,1-1.6,2.4-1.4,3.1c0.3,0.9,1.9,1.8,3,1.8c1.6,0,2.1-1.4,2.1-3
		c0-1.4,0.2-2.8,0.7-4.1c3.4-8.2,7.9-15.5,14.8-21.3c0.9-0.8,1.5-2.5,1.6-3.8c0.1-7.2,0.1-14.4,0-21.5c0-2.3,0.7-2.8,2.9-2.7
		c5.9,0.1,11.9,0,17.9,0.1c3.3,0,3.4,0.1,2.7,4c-6.2,0-12.4,0-19,0c0,1.4,0,2.4,0,3.4c0,11.4-0.4,22.8,0.2,34.1
		c0.3,6.8-1.1,12.2-6.8,16.3c-1.1,0.8-1.9,2.1-3,2.9c-1.1,0.8-2.5,1.2-3.6,2.1c-0.9,0.7-2.1,1.9-2.1,2.8c0.1,0.9,1.5,2.4,2.4,2.4
		c0.9,0,2.7-1.5,2.6-2.2c-0.2-2.1,1.1-3,2.3-4.1c2.7-2.7,5.5-5.4,8.1-8.2c0.9-1,1.6-2.5,1.6-3.8c0.1-13.7,0.1-27.5,0-41.2
		c0-2,0.5-2.8,2.6-2.7c4.2,0.2,8.4,0,12.6,0.1c0.8,0,1.6,0.7,2.4,1.1c-0.9,0.3-1.7,0.9-2.6,1c-3,0.1-6,0-9.2,0c0,1.2,0,1.9,0,2.6
		c0,15.8-0.3,31.7,0.1,47.5c0.1,5.9-1,10.5-5.9,14c-2.3,1.6-3.4,4.7-6.8,4.8c-0.6,0-1.7,1.9-1.5,2.8c0.1,0.9,1.5,2.1,2.4,2.1
		c0.9,0,2.6-1.2,2.5-1.9c0-2.2,1.3-3.3,2.6-4.6c2.1-2.1,4.1-4.3,6.3-6.3c1.5-1.3,2-2.8,2-4.8c-0.1-17.1,0-34.1,0-51.2c0-1,0-2,0-2.9
		c3.6,0,6.7,0,9.9,0c0,0.2,0,0.4,0,0.6c-1.3,0.2-2.6,0.3-4,0.5c-0.1,0.6-0.1,1-0.1,1.5c0,15.1,0,30.1,0.1,45.2c0,1,0.6,2.3,1.3,2.9
		c3.3,2.5,4.5,5.8,3.9,9.8c-0.1,0.7,0.1,1.4,0,2.1c-0.4,1.3-0.7,2.7-1.5,3.6c-2.6,2.9-5.4,5.7-8.3,8.4c-1,1-2.7,1.3-3.8,2.2
		c-0.9,0.7-2.2,1.9-2.1,2.8c0,0.9,1.5,2.3,2.4,2.4c0.9,0,2-1.2,2.7-2.2c0.9-1.2,1.2-2.7,2.1-3.8c1.5-1.8,3.1-3.6,5-5
		c4.5-3.3,5.8-7.5,5.4-12.9c-0.2-2.9-0.8-5.1-3.1-7c-1-0.8-2.1-2.2-2.1-3.3c-0.1-14.4-0.1-28.7,0-43.1c0-0.6,0.8-1.3,1.2-1.9
		c0.5,0.6,1.4,1.2,1.4,1.9c0.2,3.1,0.1,6.3,0.1,9.4c0,2.2,0.7,4,2.3,5.6c0.6,0.6,1.1,1.8,1.1,2.7c0.1,6.3,0.1,12.6,0,18.9
		c0,1.9,0.5,3.3,1.9,4.6c1.2,1.2,2.8,2.8,2.8,4.4c0.5,9.9,0.7,19.8-3.6,29.1c-0.5,1-1.2,2-2.1,2.7c-1.3,1-2,2.3-0.9,3.6
		c0.7,0.8,2.6,1.5,3.2,1.1c0.9-0.5,1.2-2.1,1.5-3.4c0.2-1.1-0.4-2.4,0-3.4c3.4-8.5,4.4-17.4,3.8-26.5c0-0.4-0.1-0.9,0-1.3
		c0.5-3.1-0.9-5.2-3.1-7.3c-1-0.9-1.7-2.6-1.7-4c-0.2-5.7-0.1-11.4-0.1-17.1c0-0.8,0.1-1.7,0.2-2.4c2.7,0,5.1,0,7.9,0
		c0,3.7,0,7.3,0,11.1c3.5,0,6.7,0,9.9,0c0.8,6.6,1.1,12.7-5.2,16.7c-0.5,0.3-1,0.8-1.3,1.3c-0.6,1-1.3,2.1-1.3,3.2
		c-0.1,7.1,0,14.2-0.1,21.3c0,1.8,0.5,2.6,2.4,2.4c0.5-0.1,1,0,1.6,0c3.3,0,7.7,3.7,8.9,6.7c0.4,1,2,2,3.1,2c0.8,0,2.2-1.9,2-2.7
		c-0.3-1-1.7-1.8-2.8-2.4c-0.7-0.4-1.9-0.3-2.6-0.8c-3.1-2.4-5.9-5.7-10.6-4.5c-0.1-0.8-0.2-1.2-0.2-1.6c0-6.7-0.1-13.3,0.1-20
		c0-1.1,0.7-2.5,1.5-3.1c5.9-4.1,7.6-9.8,6.5-16.6c0-0.3,0-0.5,0-0.8c0.3-2.2-0.4-3.2-2.9-3c-2.4,0.2-4.8,0-7.3,0c0-3.4,0-6.3,0-9.3
		c1.2,0,2.2,0,3.3,0c0.1,1.3,0.3,2.5,0.4,3.9c2.7,0,5.3,0.1,7.8,0c1.7-0.1,2.3,0.5,2.3,2.2c-0.1,4.1-0.2,8.2,0,12.3
		c0.2,2.9-0.5,5.1-2.9,6.8c-4.2,3-6.2,7-5.4,12.4c0.4,2.8,0.1,5.8,0.1,8.7c0,0.8,0.1,1.7,0.2,2.6c4.6,0,8.9,0.2,13.2-0.1
		c3.3-0.2,6.1,0.5,8.4,3.1c1.4,1.6,3.2,2.7,4.7,4.2c0.8,0.9,1.1,2.2,1.8,3.1c0.7,0.9,1.8,2.2,2.7,2.2c0.9,0,2.4-1.4,2.5-2.3
		c0.1-0.9-1.3-2.7-2-2.7c-2.2,0.1-3.6-1.1-4.7-2.5c-4.8-6-11-7.6-18.5-6.9c-6.4,0.6-6.1,0.1-6.6-6.5c-0.5-6.6,0.9-11.9,6.5-15.9
		c1-0.7,1.7-2.6,1.7-4c0.2-5.1,0.1-10.1,0.1-15.2c0-1-0.1-2-0.2-3.2c-3,0-5.7,0.1-8.4,0c-0.6,0-1.2-0.6-1.7-1
		c0.6-0.4,1.2-1.2,1.8-1.2c2.1-0.2,4.2,0.2,6.3-0.1c3.6-0.5,6.1,0.8,8.4,3.6c1.5,1.8,2.7,3.2,2.7,5.8c-0.2,10.2,0,20.5-0.1,30.7
		c0,2.4,0.7,2.9,3,2.9c9-0.1,18-0.1,27,0c0.8,0,2.2,0.4,2.4,0.9c0.8,2.1,2.7,3.9,1.5,6.6c-0.3,0.7,0.8,2.5,1.7,2.9
		c0.7,0.3,2.5-0.4,2.9-1.2c0.4-0.8,0.1-2.9-0.5-3.1c-2.5-1-3-3.3-3.7-5.4c-0.7-2.2-2-2.7-4.1-2.6c-7.2,0.1-14.4,0-21.5,0
		c-2.3,0-4.5,0-7.1,0c0-1.3,0-2.3,0-3.4c0-8.8-0.2-17.5,0.1-26.3c0.2-4.3-0.6-7.7-4.2-10.2c-0.3-0.2-0.5-0.7-0.7-1.1
		c3.2-0.6,8.3,4,8.3,7.3c0,8.1,0,16.3,0,24.4c0,0.9,0.1,1.8,0.2,3c1.3,0,2.3,0,3.4,0c6.6,0,13.1,0,19.7,0c10.9,0,21.7,0,32.6,0.1
		c0.9,0,2.4,0.8,2.5,1.3c0.3,2.3,0.1,4.6,0.1,7.2c-3.7,0-7,0-10.3,0c-1.5,0-2.5,0.4-2.1,2.1l-0.2,8.7c0.2,1.1,0,1.9,0.1,2.9
		c1.6,0,3.5,0,5-0.1c1.4-0.1,1.9,0.5,1.8,1.8c0,1.3,0.2,2.4,0.2,3.4c-1.1,0.2-2,1.2-2,2.5c0,1.4,1.1,2.5,2.4,2.5
		c1.3,0,2.4-1.1,2.4-2.5c0-1.1-0.6-2-1.5-2.4c0-1.2,0.1-2.5,0.2-3.7c0-0.5,0.3-1.3,0.7-1.5c0.6-0.2,1.3,0,1.9,0.3
		c0.4,0.2,0.7,1,1.1,1c1.1,0.1,2.6,0.2,3.3-0.4c0.6-0.6,0.9-2.5,0.4-3.1c-0.6-0.7-2.6-1.3-3.2-0.9c-3.4,2.4-7.1,0.8-10.7,1.2
		c0-3.5,0-6.7,0-10.1c4.1,0,8,0,12.3,0c0-3.1-0.2-6,0.1-8.9c0.2-2.6-0.7-3.2-3.2-3.2c-17.4,0.1-34.8,0.1-52.3,0.1c-0.9,0-1.8,0-3,0
		c0-1.3,0-2.3,0-3.2c0-6.6-0.2-13.1,0.1-19.7c0.2-3.9-0.5-7-3.9-9.3c-0.3-0.2-0.4-0.6-0.6-1.1c2.9-0.1,7.3,4.2,7.3,7
		c0,6.9,0.1,13.8-0.1,20.7c-0.1,2.5,0.6,3.3,3.2,3.2c17.2-0.1,34.3-0.1,51.5-0.1c3.5,0,6.9,0,10.6,0c0,4.7,0,9,0,13.3
		c0,1.7,0.2,3.4-1.3,4.8c-0.5,0.5-0.3,2.6,0.3,3.1c0.8,0.6,2.5,0.7,3.4,0.2c0.7-0.4,1.1-2.6,0.7-3c-2-1.9-1.4-4.2-1.4-6.4
		c-0.1-3.6-0.1-7.2,0-10.8c0.1-2.3-0.5-3-2.9-3c-19.7,0.1-39.4,0.1-59.1,0.1c-1,0-2-0.1-3.2-0.2c0-6.3-0.2-12.4,0.1-18.4
		c0.1-3.9-0.1-7.5-3.7-9.9c-0.2-0.1-0.2-0.5-0.3-0.7c2.9-0.4,6.3,2.7,6.3,5.7c0,6,0.1,12.1,0,18.1c-0.1,2.4,0.7,2.9,3,2.9
		c22.8-0.1,45.7,0,68.5,0c1.2,0,2.4,0,3.8,0c0,6.8,0.1,13.2-0.1,19.6c0,1.1-0.5,2.3-1.1,3.2c-0.9,1.4-1,2.9,0.4,3.7
		c0.9,0.5,2.9,0.5,3.4-0.1c0.6-0.8,0.4-2.4,0.2-3.7c-0.1-1-1-2-1-3c-0.1-6.2-0.1-12.4,0-18.6c0-2.1-0.5-2.8-2.8-2.8
		c-23.1,0.1-46.2,0.1-69.3,0c-1,0-2-0.1-3.2-0.1c0-5,0.1-9.7,0-14.5c-0.1-3.6,1.3-7.6-3.1-10.2c4.7-0.9,7.4,1.1,7.4,5.2
		c0,3.2,0.2,6.3,0,9.4c-0.2,2.5,0.5,3.3,3.1,3.3c23.5-0.1,47.1,0,70.6-0.1c2.1,0,3.1,0.7,4,2.5c3,5.8,6.3,11.5,9.3,17.3
		c0.4,0.9,0.1,2.1,0.4,3.1c0.4,1.2,0.9,2.7,1.8,3.2c0.6,0.3,2.8-0.7,3-1.4c0.2-1-0.6-2.4-1.3-3.4c-0.6-0.9-1.9-1.5-2.4-2.4
		c-3.3-5.9-6.7-11.9-9.8-18c-1-1.9-2.2-2.5-4.3-2.5c-23.3,0.1-46.6,0-69.8,0c-0.9,0-1.7,0-2.9,0c0-1.7,0.1-3.2,0-4.6
		c-0.5-4,1.6-8.3-1.8-12.1c1.7,0.3,3.2,0.8,4.3,1.8c3,2.7,5.9,5.5,8.6,8.5c1.4,1.5,2.8,2,4.8,2c21.1-0.1,42.2,0,63.3-0.1
		c1.9,0,3.3,0.5,4.6,1.9c3.8,4,7.8,7.8,11.6,11.8c0.9,1,1.2,2.5,2,3.6c0.7,0.9,1.8,2,2.8,2.1c0.8,0.1,2.3-1.3,2.3-2.1
		c0-1-1.1-2.8-1.8-2.8c-2.4,0-3.6-1.6-5-3c-3.7-3.7-7.5-7.4-11.1-11.2c-1.4-1.5-2.8-2-4.8-2c-21.3,0.1-42.5,0-63.8,0
		c-1,0-2.2-0.1-2.9-0.7c-3.3-3-6.5-6.2-10-9.6c1.3-0.7,2.1-1.1,3.2-1.6c1.1,1.2,2.3,2.3,3.3,3.6c1.6,2.2,3.7,2.6,6.4,2.6
		c21-0.1,42-0.1,63,0c3.8,0,8-0.9,11.2,0.4c3.3,1.4,5.6,5.1,8.3,7.8c1.3,1.3,2.8,2.4,2.9,4.7c0,0.7,1.9,1.8,2.9,1.7
		c0.8,0,2-1.6,2.1-2.4C255.5,139.4,254.2,137.8,253.5,137.8z M149,115.2c-6.1,0-11.8,0-17.4,0c-10.3,0-20.6,0-31,0c-3.3,0-4-0.7-4-4
		c0-14.7,0-29.4,0-44.1c0-3.6,0.8-4.4,4.2-4.4c14.6,0,29.2,0,43.8,0c3.6,0,4.4,0.8,4.4,4.2c0,14.7,0,29.4,0,44.1
		C149,112.2,149,113.5,149,115.2z"/>
	<path class="st2" d="M134.7,82.1c-3.7-2.5-10.2-2.2-13.6,0.6c-1.6,1.4-2.8,3-2.3,5.4c2,0,3.8,0,6,0c0.5-2.5,2.2-3.2,4.5-2.5
		c2.3,0.7,2.2,2.6,2,4.4c-3.1,0.4-6.1,0.6-8.9,1.4c-3.7,1-5.5,4.1-4.9,7.9c0.5,3.4,3.1,5.5,6.7,5.8c3,0.2,5.3-0.9,7.1-3.3
		c0.4,1,0.8,1.9,1.1,2.6c2.3,0,4.3,0,5.9,0c-0.1-5.4-0.3-10.6-0.4-15.8C137.9,85.9,137,83.7,134.7,82.1z M127.5,100
		c-1.6,0.2-3.1-0.1-3.3-2.1c-0.2-1.8,0.7-3.1,2.5-3.3c1.4-0.2,2.9,0,4.5,0C131.5,98.1,130.3,99.7,127.5,100z"/>
	<path class="st2" d="M107.2,104.5c2.2,0,4.2,0,6.4,0c0-8,0-15.7,0-23.4c-2.2,0-4.3,0-6.4,0C107.2,89,107.2,96.7,107.2,104.5z"/>
	<path class="st2" d="M113.6,75.6c0-1.8,0-3.3,0-4.8c-6.7-0.4-7.3-1.2-6.1,4.8C109.5,75.6,111.5,75.6,113.6,75.6z"/>
</g>
</svg>
